<svg id="svg" version="1.1" xmlns="http://www.w3.org/2000/svg" xmlns:xlink="http://www.w3.org/1999/xlink" width="400" height="281.9047619047619" viewBox="0, 0, 400,281.9047619047619"><g id="svgg"><path id="path0" d="M187.905 21.997 C 183.608 27.809,168.285 38.285,153.855 45.275 C 118.529 62.389,95.863 80.164,80.319 102.942 C 66.228 123.591,64.232 124.732,57.143 116.190 C 46.968 103.930,25.887 111.541,19.533 129.769 C 11.487 152.851,31.234 177.800,51.420 170.054 C 55.440 168.512,57.168 170.374,57.227 176.310 C 58.292 283.911,308.277 293.300,335.581 186.765 C 339.761 170.457,340.921 169.214,350.630 170.639 C 365.891 172.878,377.143 160.279,377.143 140.952 C 377.143 114.633,352.885 100.701,337.212 118.019 C 330.484 125.453,330.238 125.330,320.096 109.448 C 304.311 84.730,276.541 61.547,246.098 47.673 C 230.872 40.735,214.040 29.794,208.546 23.263 C 196.497 8.944,197.509 9.006,187.905 21.997 M187.522 122.835 C 195.400 128.104,197.518 127.959,210.756 121.239 C 264.596 93.909,326.829 140.869,308.873 195.276 C 285.403 266.390,116.826 268.607,87.656 198.185 C 64.965 143.404,137.006 89.047,187.522 122.835 M53.467 143.019 C 59.499 150.287,53.604 157.529,43.262 155.556 C 33.227 153.643,31.355 137.143,41.173 137.143 C 45.253 137.143,50.785 139.787,53.467 143.019 M361.217 145.675 C 359.891 154.970,348.261 159.309,341.852 152.900 C 336.465 147.512,345.129 137.143,355.017 137.143 C 360.522 137.143,362.121 139.343,361.217 145.675 M121.905 154.286 C 121.905 157.429,123.619 160.000,125.714 160.000 C 127.810 160.000,129.524 157.429,129.524 154.286 C 129.524 151.143,127.810 148.571,125.714 148.571 C 123.619 148.571,121.905 151.143,121.905 154.286 M262.857 154.286 C 262.857 157.429,264.571 160.000,266.667 160.000 C 268.762 160.000,270.476 157.429,270.476 154.286 C 270.476 151.143,268.762 148.571,266.667 148.571 C 264.571 148.571,262.857 151.143,262.857 154.286 " stroke="none" fill="#000000" fill-rule="evenodd"></path></g></svg>